# File created by Blade
# Date/Time:  Tue Apr 07 21:33:03 2015
# Frame Rate: 120.000 fps
#------------------------------------------------------
:FULLY-SPECIFIED
:DEGREES
277
root 22.298421 32.201893 -7.925214 17.032953 -35.399273 1.095961
Spine -11.162094 1.652593 -4.464264
Head 9.761846 8.780342 3.864150
LeftShoulder -22.739587 47.282589 3.775542
LeftArm 48.135087 -1.310321 -83.865468
LeftForeArm -4.460438 -0.000000 26.199032
LeftHand 4.845165 -0.000000 -6.658226
LeftHandThumb1 -26.253704 0.000000 33.147579
RightShoulder -4.618734 -9.826183 -16.617141
RightArm 12.568302 -15.491903 88.771694
RightForeArm 4.903563 -0.000000 22.373078
RightHand 5.287381 -0.000000 7.222728
RightHandThumb1 -24.326973 -0.000000 -32.862282
LeftUpLeg -24.913215 6.491000 -9.485520
LeftLeg 15.535823 -0.000000 -0.000000
LeftFoot -17.039824 24.816377 -19.722705
LeftToeBase -6.889372 -0.000000 0.000000
RightUpLeg -14.737538 -14.740507 5.932359
RightLeg 40.235342 -0.000000 -0.000000
RightFoot -19.815167 -12.012409 25.002772
RightToeBase -11.333014 -0.000000 0.000000
278
root 22.436134 32.189698 -8.007408 17.070783 -36.501789 1.155947
Spine -11.221242 1.847504 -4.534864
Head 9.713322 8.974694 3.885918
LeftShoulder -22.852366 47.316056 3.624914
LeftArm 48.153139 -1.077465 -83.934904
LeftForeArm -4.292492 0.000000 26.047766
LeftHand 4.729311 0.000000 -6.140724
LeftHandThumb1 -26.253704 0.000000 33.147579
RightShoulder -4.559239 -9.721700 -16.627498
RightArm 12.708185 -15.408024 88.737948
RightForeArm 4.736012 -0.000000 22.799136
RightHand 5.378793 -0.000000 7.061027
RightHandThumb1 -24.326973 -0.000000 -32.862282
LeftUpLeg -25.319327 6.866729 -9.825130
LeftLeg 15.574991 -0.000000 -0.000000
LeftFoot -17.081235 25.285771 -19.725026
LeftToeBase -6.863290 -0.000000 0.000000
RightUpLeg -14.591768 -14.566060 5.721521
RightLeg 39.596937 -0.000000 -0.000000
RightFoot -19.209279 -11.819075 24.876374
RightToeBase -11.305983 -0.000000 0.000000
279
root 22.574133 32.177415 -8.093655 17.094768 -37.586884 1.172684
Spine -11.205893 2.031725 -4.533652
Head 9.615744 9.076981 3.852686
LeftShoulder -22.898284 47.293964 3.494218
LeftArm 48.097222 -0.894460 -84.004640
LeftForeArm -4.314034 -0.000000 25.912835
LeftHand 4.741390 0.000000 -6.291486
LeftHandThumb1 -26.253704 0.000000 33.147579
RightShoulder -4.504094 -9.551191 -16.674510
RightArm 12.806413 -15.278579 88.757096
RightForeArm 4.590336 -0.000000 23.235492
RightHand 5.412387 -0.000000 6.973893
RightHandThumb1 -24.326973 -0.000000 -32.862282
LeftUpLeg -25.701260 7.233487 -10.103428
LeftLeg 15.628451 -0.000000 -0.000000
LeftFoot -17.170130 25.705703 -19.810872
LeftToeBase -6.780701 -0.000000 0.000000
RightUpLeg -14.406092 -14.385765 5.580241
RightLeg 38.797209 -0.000000 -0.000000
RightFoot -18.516618 -12.042469 24.470552
RightToeBase -11.053219 -0.000000 0.000000
280
root 22.704874 32.163769 -8.188954 17.187342 -38.564389 1.078479
Spine -11.191177 2.129952 -4.438043
Head 9.585516 9.292243 3.872430
LeftShoulder -22.908351 47.272475 3.433583
LeftArm 48.031306 -0.716677 -84.128286
LeftForeArm -4.335898 -0.000000 25.763751
LeftHand 4.744332 0.000000 -6.472172
LeftHandThumb1 -26.253704 0.000000 33.147579
RightShoulder -4.434242 -9.450944 -16.696167
RightArm 12.975393 -15.129215 88.751434
RightForeArm 4.412460 0.000000 23.698422
RightHand 5.410187 -0.000000 6.881479
RightHandThumb1 -24.326973 -0.000000 -32.862282
LeftUpLeg -26.179956 7.617908 -10.307082
LeftLeg 15.828758 -0.000000 -0.000000
LeftFoot -17.256864 26.224111 -19.715603
LeftToeBase -6.574468 -0.000000 0.000000
RightUpLeg -14.229329 -14.168280 5.547428
RightLeg 37.866984 -0.000000 -0.000000
RightFoot -17.550771 -12.422834 24.116803
RightToeBase -10.895748 -0.000000 0.000000
281
root 22.845547 32.151395 -8.287121 17.299723 -39.608018 1.126228
Spine -11.292226 2.228860 -4.488512
Head 9.581273 9.574001 3.899490
LeftShoulder -22.957729 47.278152 3.373743
LeftArm 48.027521 -0.473928 -84.180730
LeftForeArm -4.467996 -0.000000 25.539125
LeftHand 4.830383 -0.000000 -6.853635
LeftHandThumb1 -26.253704 0.000000 33.147579
RightShoulder -4.359423 -9.295951 -16.723990
RightArm 13.108685 -14.925165 88.821640
RightForeArm 4.167839 -0.000000 24.069119
RightHand 5.514716 -0.000000 6.827931
RightHandThumb1 -24.326973 -0.000000 -32.862282
LeftUpLeg -26.686419 7.936486 -10.614441
LeftLeg 15.839072 -0.000000 -0.000000
LeftFoot -17.282856 26.737629 -19.729508
LeftToeBase -6.441613 -0.000000 0.000000
RightUpLeg -14.206608 -13.847161 5.382554
RightLeg 36.877989 -0.000000 -0.000000
RightFoot -16.282395 -12.970459 23.594304
RightToeBase -10.629991 -0.000000 0.000000
